<mxfile host="drawio-plugin" modified="2023-07-25T19:09:22.925Z" agent="5.0 (Windows NT 6.2; Win64; x64) AppleWebKit/537.36 (KHTML, like Gecko) Chrome/98.0.4758.102 Safari/537.36" etag="HEKe_wBxTKNKgWI2L7vP" version="20.5.3" type="embed" pages="2"><diagram id="S2Auf2exzFa5h51wSJmY" name="Page-1"><mxGraphModel dx="689" dy="358" grid="1" gridSize="10" guides="1" tooltips="1" connect="1" arrows="1" fold="1" page="1" pageScale="1" pageWidth="850" pageHeight="1100" math="0" shadow="0"><root><mxCell id="0"/><mxCell id="1" parent="0"/><mxCell id="2" value="Class Nursery" style="rounded=0;whiteSpace=wrap;html=1;" parent="1" vertex="1"><mxGeometry x="270" y="40" width="100" height="40" as="geometry"/></mxCell><mxCell id="3" value="&lt;span style=&quot;color: rgb(0, 0, 0); font-family: Helvetica; font-size: 12px; font-style: normal; font-variant-ligatures: normal; font-variant-caps: normal; font-weight: 400; letter-spacing: normal; orphans: 2; text-align: center; text-indent: 0px; text-transform: none; widows: 2; word-spacing: 0px; -webkit-text-stroke-width: 0px; background-color: rgb(248, 249, 250); text-decoration-thickness: initial; text-decoration-style: initial; text-decoration-color: initial; float: none; display: inline !important;&quot;&gt;Class Pets&lt;/span&gt;" style="rounded=0;whiteSpace=wrap;html=1;" parent="1" vertex="1"><mxGeometry x="180" y="100" width="90" height="40" as="geometry"/></mxCell><mxCell id="4" value="&lt;span style=&quot;color: rgb(0, 0, 0); font-family: Helvetica; font-size: 12px; font-style: normal; font-variant-ligatures: normal; font-variant-caps: normal; font-weight: 400; letter-spacing: normal; orphans: 2; text-align: center; text-indent: 0px; text-transform: none; widows: 2; word-spacing: 0px; -webkit-text-stroke-width: 0px; background-color: rgb(248, 249, 250); text-decoration-thickness: initial; text-decoration-style: initial; text-decoration-color: initial; float: none; display: inline !important;&quot;&gt;Class Pask_Animals&lt;/span&gt;" style="rounded=0;whiteSpace=wrap;html=1;" parent="1" vertex="1"><mxGeometry x="370" y="100" width="90" height="40" as="geometry"/></mxCell><mxCell id="5" value="" style="endArrow=classic;html=1;rounded=0;exitX=0;exitY=1;exitDx=0;exitDy=0;entryX=0;entryY=1;entryDx=0;entryDy=0;" parent="1" target="2" edge="1"><mxGeometry width="50" height="50" relative="1" as="geometry"><mxPoint x="220" y="100" as="sourcePoint"/><mxPoint x="270" y="50" as="targetPoint"/><Array as="points"><mxPoint x="240" y="80"/></Array></mxGeometry></mxCell><mxCell id="6" value="" style="endArrow=classic;html=1;rounded=0;exitX=0.5;exitY=0;exitDx=0;exitDy=0;entryX=1;entryY=1;entryDx=0;entryDy=0;" parent="1" source="4" target="2" edge="1"><mxGeometry width="50" height="50" relative="1" as="geometry"><mxPoint x="420" y="80" as="sourcePoint"/><mxPoint x="370" y="100" as="targetPoint"/><Array as="points"><mxPoint x="390" y="80"/></Array></mxGeometry></mxCell><mxCell id="7" value="&lt;span style=&quot;color: rgb(0, 0, 0); font-family: Helvetica; font-size: 12px; font-style: normal; font-variant-ligatures: normal; font-variant-caps: normal; font-weight: 400; letter-spacing: normal; orphans: 2; text-align: center; text-indent: 0px; text-transform: none; widows: 2; word-spacing: 0px; -webkit-text-stroke-width: 0px; background-color: rgb(248, 249, 250); text-decoration-thickness: initial; text-decoration-style: initial; text-decoration-color: initial; float: none; display: inline !important;&quot;&gt;Class Dogs&lt;/span&gt;" style="rounded=0;whiteSpace=wrap;html=1;" parent="1" vertex="1"><mxGeometry x="50" y="160" width="90" height="40" as="geometry"/></mxCell><mxCell id="8" value="&lt;span style=&quot;color: rgb(0, 0, 0); font-family: Helvetica; font-size: 12px; font-style: normal; font-variant-ligatures: normal; font-variant-caps: normal; font-weight: 400; letter-spacing: normal; orphans: 2; text-align: center; text-indent: 0px; text-transform: none; widows: 2; word-spacing: 0px; -webkit-text-stroke-width: 0px; background-color: rgb(248, 249, 250); text-decoration-thickness: initial; text-decoration-style: initial; text-decoration-color: initial; float: none; display: inline !important;&quot;&gt;Class Cats&lt;/span&gt;" style="rounded=0;whiteSpace=wrap;html=1;" parent="1" vertex="1"><mxGeometry x="150" y="160" width="90" height="40" as="geometry"/></mxCell><mxCell id="9" value="&lt;span style=&quot;color: rgb(0, 0, 0); font-family: Helvetica; font-size: 12px; font-style: normal; font-variant-ligatures: normal; font-variant-caps: normal; font-weight: 400; letter-spacing: normal; orphans: 2; text-align: center; text-indent: 0px; text-transform: none; widows: 2; word-spacing: 0px; -webkit-text-stroke-width: 0px; background-color: rgb(248, 249, 250); text-decoration-thickness: initial; text-decoration-style: initial; text-decoration-color: initial; float: none; display: inline !important;&quot;&gt;Class Hamster&lt;/span&gt;" style="rounded=0;whiteSpace=wrap;html=1;" parent="1" vertex="1"><mxGeometry x="250" y="160" width="90" height="40" as="geometry"/></mxCell><mxCell id="12" value="" style="endArrow=classic;html=1;rounded=0;exitX=0;exitY=1;exitDx=0;exitDy=0;entryX=0;entryY=1;entryDx=0;entryDy=0;" parent="1" target="3" edge="1"><mxGeometry width="50" height="50" relative="1" as="geometry"><mxPoint x="130" y="160" as="sourcePoint"/><mxPoint x="160" y="140" as="targetPoint"/></mxGeometry></mxCell><mxCell id="13" value="" style="endArrow=classic;html=1;rounded=0;" parent="1" edge="1"><mxGeometry width="50" height="50" relative="1" as="geometry"><mxPoint x="200" y="160" as="sourcePoint"/><mxPoint x="220" y="140" as="targetPoint"/></mxGeometry></mxCell><mxCell id="14" value="" style="endArrow=classic;html=1;rounded=0;entryX=0.5;entryY=0;entryDx=0;entryDy=0;exitX=0.5;exitY=0;exitDx=0;exitDy=0;" parent="1" source="9" edge="1"><mxGeometry width="50" height="50" relative="1" as="geometry"><mxPoint x="250" y="160" as="sourcePoint"/><mxPoint x="270" y="140" as="targetPoint"/></mxGeometry></mxCell><mxCell id="15" value="&lt;span style=&quot;color: rgb(0, 0, 0); font-family: Helvetica; font-size: 12px; font-style: normal; font-variant-ligatures: normal; font-variant-caps: normal; font-weight: 400; letter-spacing: normal; orphans: 2; text-align: center; text-indent: 0px; text-transform: none; widows: 2; word-spacing: 0px; -webkit-text-stroke-width: 0px; background-color: rgb(248, 249, 250); text-decoration-thickness: initial; text-decoration-style: initial; text-decoration-color: initial; float: none; display: inline !important;&quot;&gt;Class Dogs&lt;/span&gt;" style="rounded=0;whiteSpace=wrap;html=1;" parent="1" vertex="1"><mxGeometry x="360" y="160" width="90" height="40" as="geometry"/></mxCell><mxCell id="16" value="&lt;span style=&quot;color: rgb(0, 0, 0); font-family: Helvetica; font-size: 12px; font-style: normal; font-variant-ligatures: normal; font-variant-caps: normal; font-weight: 400; letter-spacing: normal; orphans: 2; text-align: center; text-indent: 0px; text-transform: none; widows: 2; word-spacing: 0px; -webkit-text-stroke-width: 0px; background-color: rgb(248, 249, 250); text-decoration-thickness: initial; text-decoration-style: initial; text-decoration-color: initial; float: none; display: inline !important;&quot;&gt;Class Dogs&lt;/span&gt;" style="rounded=0;whiteSpace=wrap;html=1;" parent="1" vertex="1"><mxGeometry x="460" y="160" width="90" height="40" as="geometry"/></mxCell><mxCell id="17" value="&lt;span style=&quot;color: rgb(0, 0, 0); font-family: Helvetica; font-size: 12px; font-style: normal; font-variant-ligatures: normal; font-variant-caps: normal; font-weight: 400; letter-spacing: normal; orphans: 2; text-align: center; text-indent: 0px; text-transform: none; widows: 2; word-spacing: 0px; -webkit-text-stroke-width: 0px; background-color: rgb(248, 249, 250); text-decoration-thickness: initial; text-decoration-style: initial; text-decoration-color: initial; float: none; display: inline !important;&quot;&gt;Class Dogs&lt;/span&gt;" style="rounded=0;whiteSpace=wrap;html=1;" parent="1" vertex="1"><mxGeometry x="560" y="160" width="90" height="40" as="geometry"/></mxCell><mxCell id="18" value="" style="endArrow=classic;html=1;rounded=0;exitX=0.5;exitY=0;exitDx=0;exitDy=0;entryX=0.411;entryY=1.055;entryDx=0;entryDy=0;entryPerimeter=0;" parent="1" source="15" target="4" edge="1"><mxGeometry width="50" height="50" relative="1" as="geometry"><mxPoint x="330" y="220" as="sourcePoint"/><mxPoint x="380" y="170" as="targetPoint"/></mxGeometry></mxCell><mxCell id="19" value="" style="endArrow=classic;html=1;rounded=0;entryX=0.5;entryY=0;entryDx=0;entryDy=0;exitX=0.5;exitY=0;exitDx=0;exitDy=0;" parent="1" source="16" edge="1"><mxGeometry width="50" height="50" relative="1" as="geometry"><mxPoint x="380" y="170" as="sourcePoint"/><mxPoint x="470" y="140" as="targetPoint"/><Array as="points"><mxPoint x="500" y="140"/></Array></mxGeometry></mxCell><mxCell id="20" value="" style="endArrow=classic;html=1;rounded=0;exitX=0.5;exitY=0;exitDx=0;exitDy=0;entryX=1;entryY=1;entryDx=0;entryDy=0;" parent="1" source="17" target="4" edge="1"><mxGeometry width="50" height="50" relative="1" as="geometry"><mxPoint x="380" y="170" as="sourcePoint"/><mxPoint x="330" y="220" as="targetPoint"/><Array as="points"><mxPoint x="540" y="140"/></Array></mxGeometry></mxCell><mxCell id="21" value="Extends" style="text;html=1;align=center;verticalAlign=middle;resizable=0;points=[];autosize=1;strokeColor=none;fillColor=none;" parent="1" vertex="1"><mxGeometry x="180" y="60" width="70" height="30" as="geometry"/></mxCell><mxCell id="22" value="Extends" style="text;html=1;align=center;verticalAlign=middle;resizable=0;points=[];autosize=1;strokeColor=none;fillColor=none;" parent="1" vertex="1"><mxGeometry x="380" y="60" width="70" height="30" as="geometry"/></mxCell></root></mxGraphModel></diagram><diagram id="OHYLv5LzBDjnO3ysdRkk" name="Page-2"><mxGraphModel dx="689" dy="358" grid="1" gridSize="10" guides="1" tooltips="1" connect="1" arrows="1" fold="1" page="1" pageScale="1" pageWidth="850" pageHeight="1100" math="0" shadow="0"><root><mxCell id="0"/><mxCell id="1" parent="0"/></root></mxGraphModel></diagram></mxfile>